<svg xmlns="http://www.w3.org/2000/svg" viewBox="0 0 186 30.56"><defs><style>.logoa{fill:#202020;}.logob{fill:#46b549;}</style></defs><path class="logoa" d="M188,9V27.69h-1.63l-12-15.16V27.69h-2V9H174l12,15.16V9Z" transform="translate(-2 -2.22)"/><path class="logoa" d="M164.51,9h1.94V27.69h-1.94Z" transform="translate(-2 -2.22)"/><path class="logoa" d="M140.87,18.35C140.87,13,145,9,150.52,9s9.62,4,9.62,9.34a9.23,9.23,0,0,1-9.62,9.34C145,27.69,140.87,23.7,140.87,18.35Zm17.34,0a7.71,7.71,0,0,0-15.42,0,7.71,7.71,0,0,0,15.42,0Z" transform="translate(-2 -2.22)"/><path class="logoa" d="M122.41,18.35C122.41,13,126.5,9,132,9a8.9,8.9,0,0,1,6.72,2.68l-1.24,1.23a7.27,7.27,0,0,0-5.42-2.18,7.5,7.5,0,0,0-7.77,7.61,7.5,7.5,0,0,0,7.77,7.6,7.17,7.17,0,0,0,5.42-2.2L138.75,25a9,9,0,0,1-6.75,2.7A9.19,9.19,0,0,1,122.41,18.35Z" transform="translate(-2 -2.22)"/><path class="logoa" d="M113.61,26v1.71H100.42V9h12.79v1.7H102.39v6.64H112v1.68h-9.65V26Z" transform="translate(-2 -2.22)"/><path class="logoa" d="M94.11,27.69l-4.27-6a12.29,12.29,0,0,1-1.49.08h-5v5.92h-2V9h7C93.1,9,96,11.41,96,15.41a5.79,5.79,0,0,1-4.27,5.87l4.56,6.41ZM94,15.41c0-3-2-4.69-5.7-4.69h-5v9.36h5c3.73,0,5.7-1.73,5.7-4.67Z" transform="translate(-2 -2.22)"/><path class="logoa" d="M57.85,18.35C57.85,13,61.94,9,67.5,9s9.63,4,9.63,9.34S73,27.69,67.5,27.69,57.85,23.7,57.85,18.35Zm17.33,0a7.71,7.71,0,0,0-15.42,0,7.71,7.71,0,0,0,15.42,0Z" transform="translate(-2 -2.22)"/><path class="logoa" d="M39.39,18.35C39.39,13,43.48,9,49,9a8.88,8.88,0,0,1,6.72,2.68l-1.24,1.23a7.28,7.28,0,0,0-5.43-2.18,7.5,7.5,0,0,0-7.76,7.61A7.5,7.5,0,0,0,49.06,26a7.18,7.18,0,0,0,5.43-2.2L55.73,25A9,9,0,0,1,49,27.68,9.2,9.2,0,0,1,39.39,18.35Z" transform="translate(-2 -2.22)"/><path class="logob" d="M30,15a2.55,2.55,0,0,0-2.55,2.55,10.19,10.19,0,1,1-7-9.69,2.55,2.55,0,0,1-.6,5,2.6,2.6,0,0,1-.84-.14h0a5.09,5.09,0,1,0,3.39,4.8A7.64,7.64,0,0,1,30,9.86l.51,0a15.27,15.27,0,1,0,2,7.62A2.55,2.55,0,0,0,30,15Z" transform="translate(-2 -2.22)"/></svg>
