<?xml version="1.0" encoding="utf-8"?>
<svg version="1.2" baseProfile="tiny" id="Layer_1" xmlns="http://www.w3.org/2000/svg" xmlns:xlink="http://www.w3.org/1999/xlink"
	 x="0px" y="0px" viewBox="0 0 111.6 30.6" overflow="visible" xml:space="preserve">
<path fill="#202020" d="M111.6,23.8v1.7H98.4V6.8h12.8v1.7h-10.8v6.6h9.6v1.7h-9.7v7H111.6z"/>
<path fill="#202020" d="M92.1,25.5l-4.3-6c-0.5,0.1-1,0.1-1.5,0.1h-5v5.9h-2V6.8h7c4.7,0,7.6,2.4,7.6,6.4c0.1,2.7-1.6,5.2-4.3,5.9
	l4.6,6.4L92.1,25.5z M92,13.2c0-3-2-4.7-5.7-4.7h-5v9.4h5C90,17.9,92,16.1,92,13.2z"/>
<path fill="#202020" d="M55.8,16.1c0-5.4,4.1-9.4,9.7-9.4s9.6,4,9.6,9.3s-4.1,9.4-9.6,9.4S55.8,21.5,55.8,16.1z M73.2,16.1
	c0-4.3-3.5-7.7-7.7-7.7c-4.3,0-7.7,3.5-7.7,7.7c0,4.3,3.5,7.7,7.7,7.7C69.7,23.8,73.2,20.4,73.2,16.1z"/>
<path fill="#202020" d="M37.4,16.1c0-5.4,4.1-9.4,9.6-9.4c2.5-0.1,5,0.9,6.7,2.7l-1.2,1.2c-1.4-1.5-3.4-2.2-5.4-2.2
	c-4.1-0.1-7.6,3.1-7.8,7.2c0,0.1,0,0.3,0,0.4c-0.1,4.1,3.2,7.6,7.3,7.7c0.1,0,0.3,0,0.4,0c2,0.1,4-0.7,5.4-2.2l1.2,1.2
	c-1.8,1.8-4.2,2.8-6.7,2.7c-5.1,0.2-9.4-3.7-9.6-8.8C37.4,16.5,37.4,16.3,37.4,16.1z"/>
<path fill="#46B549" d="M28,12.8c-1.4,0-2.5,1.1-2.5,2.5c0,5.6-4.6,10.2-10.2,10.2S5.1,20.9,5.1,15.3c0-5.6,4.6-10.2,10.2-10.2
	c1.1,0,2.2,0.2,3.2,0.5c1.4,0.4,2.1,1.8,1.8,3.2c-0.3,1.1-1.3,1.8-2.4,1.8c-0.3,0-0.6,0-0.8-0.1l0,0c-2.6-0.9-5.6,0.4-6.5,3.1
	c-0.9,2.6,0.4,5.6,3.1,6.5c2.6,0.9,5.6-0.4,6.5-3.1c0.2-0.5,0.3-1.1,0.3-1.7c0-4.2,3.4-7.6,7.6-7.7h0.5C24.3,0.3,15-2.2,7.7,1.9
	S-2.2,15.4,2,22.8s13.5,9.9,20.8,5.7c4.7-2.7,7.7-7.7,7.7-13.2C30.5,13.9,29.4,12.8,28,12.8z"/>
</svg>
